<mxfile host="65bd71144e" pages="3">
    <diagram id="2un_Dxcg0y_kep0SMkIZ" name="Network">
        <mxGraphModel dx="1348" dy="950" grid="1" gridSize="10" guides="1" tooltips="1" connect="1" arrows="1" fold="1" page="1" pageScale="1" pageWidth="1169" pageHeight="827" math="0" shadow="0">
            <root>
                <mxCell id="0"/>
                <mxCell id="1" parent="0"/>
                <mxCell id="2" value="Tower" style="rounded=1;whiteSpace=wrap;html=1;" parent="1" vertex="1">
                    <mxGeometry x="483" y="60" width="120" height="60" as="geometry"/>
                </mxCell>
                <mxCell id="3" value="Server" style="ellipse;shape=cloud;whiteSpace=wrap;html=1;rounded=1;" parent="1" vertex="1">
                    <mxGeometry x="488" y="413" width="120" height="80" as="geometry"/>
                </mxCell>
                <mxCell id="4" value="MQTT" style="shape=process;whiteSpace=wrap;html=1;backgroundOutline=1;rounded=1;" parent="1" vertex="1">
                    <mxGeometry x="313" y="270" width="120" height="60" as="geometry"/>
                </mxCell>
                <mxCell id="7" value="Dashboard" style="swimlane;whiteSpace=wrap;html=1;startSize=23;rounded=1;" parent="1" vertex="1">
                    <mxGeometry x="450" y="580" width="200" height="230" as="geometry"/>
                </mxCell>
                <mxCell id="zSIab7UuZpkNHue7BMaE-23" value="Monitor Device Data" style="whiteSpace=wrap;html=1;rounded=1;" parent="7" vertex="1">
                    <mxGeometry x="40" y="30" width="120" height="60" as="geometry"/>
                </mxCell>
                <mxCell id="zSIab7UuZpkNHue7BMaE-24" value="Options" style="swimlane;fontStyle=0;childLayout=stackLayout;horizontal=1;startSize=30;horizontalStack=0;resizeParent=1;resizeParentMax=0;resizeLast=0;collapsible=1;marginBottom=0;whiteSpace=wrap;html=1;rounded=1;" parent="7" vertex="1">
                    <mxGeometry x="40" y="100" width="120" height="120" as="geometry"/>
                </mxCell>
                <mxCell id="zSIab7UuZpkNHue7BMaE-25" value="Node-Red" style="text;strokeColor=none;fillColor=none;align=left;verticalAlign=middle;spacingLeft=4;spacingRight=4;overflow=hidden;points=[[0,0.5],[1,0.5]];portConstraint=eastwest;rotatable=0;whiteSpace=wrap;html=1;rounded=1;" parent="zSIab7UuZpkNHue7BMaE-24" vertex="1">
                    <mxGeometry y="30" width="120" height="30" as="geometry"/>
                </mxCell>
                <mxCell id="zSIab7UuZpkNHue7BMaE-26" value="Home Assistant" style="text;strokeColor=none;fillColor=none;align=left;verticalAlign=middle;spacingLeft=4;spacingRight=4;overflow=hidden;points=[[0,0.5],[1,0.5]];portConstraint=eastwest;rotatable=0;whiteSpace=wrap;html=1;rounded=1;" parent="zSIab7UuZpkNHue7BMaE-24" vertex="1">
                    <mxGeometry y="60" width="120" height="30" as="geometry"/>
                </mxCell>
                <mxCell id="zSIab7UuZpkNHue7BMaE-27" value="Custom" style="text;strokeColor=none;fillColor=none;align=left;verticalAlign=middle;spacingLeft=4;spacingRight=4;overflow=hidden;points=[[0,0.5],[1,0.5]];portConstraint=eastwest;rotatable=0;whiteSpace=wrap;html=1;rounded=1;" parent="zSIab7UuZpkNHue7BMaE-24" vertex="1">
                    <mxGeometry y="90" width="120" height="30" as="geometry"/>
                </mxCell>
                <mxCell id="10" value="" style="endArrow=classic;startArrow=classic;html=1;entryX=0;entryY=0.5;entryDx=0;entryDy=0;exitX=0.5;exitY=0;exitDx=0;exitDy=0;" parent="1" source="4" target="2" edge="1">
                    <mxGeometry width="50" height="50" relative="1" as="geometry">
                        <mxPoint x="188" y="320" as="sourcePoint"/>
                        <mxPoint x="238" y="270" as="targetPoint"/>
                        <Array as="points">
                            <mxPoint x="373" y="90"/>
                        </Array>
                    </mxGeometry>
                </mxCell>
                <mxCell id="17" value="REST API" style="shape=process;whiteSpace=wrap;html=1;backgroundOutline=1;rounded=1;" parent="1" vertex="1">
                    <mxGeometry x="658" y="270" width="120" height="60" as="geometry"/>
                </mxCell>
                <mxCell id="19" value="" style="endArrow=classic;startArrow=classic;html=1;entryX=1;entryY=0.5;entryDx=0;entryDy=0;exitX=0.5;exitY=0;exitDx=0;exitDy=0;" parent="1" source="17" target="2" edge="1">
                    <mxGeometry width="50" height="50" relative="1" as="geometry">
                        <mxPoint x="533" y="330" as="sourcePoint"/>
                        <mxPoint x="828" y="100" as="targetPoint"/>
                        <Array as="points">
                            <mxPoint x="718" y="90"/>
                        </Array>
                    </mxGeometry>
                </mxCell>
                <mxCell id="zSIab7UuZpkNHue7BMaE-20" value="Wifi Manager" style="swimlane;whiteSpace=wrap;html=1;rounded=1;" parent="1" vertex="1">
                    <mxGeometry x="508" y="274" width="100" height="100" as="geometry"/>
                </mxCell>
                <mxCell id="zSIab7UuZpkNHue7BMaE-22" value="Set Wifi Settings" style="whiteSpace=wrap;html=1;rounded=1;" parent="zSIab7UuZpkNHue7BMaE-20" vertex="1">
                    <mxGeometry x="25" y="28" width="50" height="44" as="geometry"/>
                </mxCell>
                <mxCell id="zSIab7UuZpkNHue7BMaE-21" value="" style="endArrow=classic;startArrow=classic;html=1;rounded=1;entryX=0.25;entryY=0;entryDx=0;entryDy=0;exitX=0.5;exitY=0;exitDx=0;exitDy=0;" parent="1" source="zSIab7UuZpkNHue7BMaE-20" target="17" edge="1">
                    <mxGeometry width="50" height="50" relative="1" as="geometry">
                        <mxPoint x="550" y="240" as="sourcePoint"/>
                        <mxPoint x="670" y="240" as="targetPoint"/>
                        <Array as="points">
                            <mxPoint x="558" y="240"/>
                            <mxPoint x="688" y="240"/>
                        </Array>
                    </mxGeometry>
                </mxCell>
                <mxCell id="zSIab7UuZpkNHue7BMaE-28" value="" style="endArrow=classic;startArrow=classic;html=1;rounded=1;entryX=0.524;entryY=0.941;entryDx=0;entryDy=0;entryPerimeter=0;" parent="1" target="3" edge="1">
                    <mxGeometry width="50" height="50" relative="1" as="geometry">
                        <mxPoint x="551" y="580" as="sourcePoint"/>
                        <mxPoint x="560" y="500" as="targetPoint"/>
                    </mxGeometry>
                </mxCell>
                <mxCell id="zSIab7UuZpkNHue7BMaE-29" value="" style="endArrow=classic;startArrow=classic;html=1;rounded=1;entryX=0.524;entryY=0.941;entryDx=0;entryDy=0;entryPerimeter=0;exitX=0.081;exitY=0.679;exitDx=0;exitDy=0;exitPerimeter=0;" parent="1" source="3" edge="1">
                    <mxGeometry width="50" height="50" relative="1" as="geometry">
                        <mxPoint x="373" y="480" as="sourcePoint"/>
                        <mxPoint x="373.2600000000001" y="330" as="targetPoint"/>
                        <Array as="points">
                            <mxPoint x="373" y="468"/>
                        </Array>
                    </mxGeometry>
                </mxCell>
                <mxCell id="zSIab7UuZpkNHue7BMaE-30" value="" style="endArrow=classic;startArrow=classic;html=1;rounded=1;entryX=0.524;entryY=0.941;entryDx=0;entryDy=0;entryPerimeter=0;exitX=0.96;exitY=0.7;exitDx=0;exitDy=0;exitPerimeter=0;" parent="1" source="3" edge="1">
                    <mxGeometry width="50" height="50" relative="1" as="geometry">
                        <mxPoint x="718" y="480" as="sourcePoint"/>
                        <mxPoint x="718.2600000000001" y="330" as="targetPoint"/>
                        <Array as="points">
                            <mxPoint x="718" y="470"/>
                        </Array>
                    </mxGeometry>
                </mxCell>
            </root>
        </mxGraphModel>
    </diagram>
    <diagram id="wd3Al9DiE81tF2mSuAt9" name="IO">
        <mxGraphModel dx="1348" dy="950" grid="1" gridSize="10" guides="1" tooltips="1" connect="1" arrows="1" fold="1" page="1" pageScale="1" pageWidth="1100" pageHeight="850" math="0" shadow="0">
            <root>
                <mxCell id="0"/>
                <mxCell id="1" parent="0"/>
                <mxCell id="pceh0z-lHyys2ZX8_1NY-5" style="edgeStyle=none;html=1;exitX=0.5;exitY=1;exitDx=0;exitDy=0;entryX=0;entryY=0;entryDx=70;entryDy=0;entryPerimeter=0;" parent="1" source="jhR8D6qrNClq47DeimPQ-1" target="Xxw2_H-GjBGp9V4nuhXf-3" edge="1">
                    <mxGeometry relative="1" as="geometry"/>
                </mxCell>
                <mxCell id="jhR8D6qrNClq47DeimPQ-1" value="Tower" style="rounded=1;whiteSpace=wrap;html=1;" parent="1" vertex="1">
                    <mxGeometry x="480" y="50" width="120" height="60" as="geometry"/>
                </mxCell>
                <mxCell id="pceh0z-lHyys2ZX8_1NY-3" style="edgeStyle=none;html=1;entryX=0;entryY=0.5;entryDx=0;entryDy=0;exitX=0;exitY=1;exitDx=60;exitDy=0;exitPerimeter=0;" parent="1" source="jhR8D6qrNClq47DeimPQ-2" target="jhR8D6qrNClq47DeimPQ-1" edge="1">
                    <mxGeometry relative="1" as="geometry">
                        <mxPoint x="440" y="180" as="sourcePoint"/>
                        <Array as="points">
                            <mxPoint x="430" y="180"/>
                            <mxPoint x="430" y="80"/>
                        </Array>
                    </mxGeometry>
                </mxCell>
                <mxCell id="jhR8D6qrNClq47DeimPQ-2" value="I2C" style="strokeWidth=2;strokeColor=#000000;dashed=0;align=center;html=1;fontSize=8;shape=mxgraph.eip.messageChannel;direction=north;" parent="1" vertex="1">
                    <mxGeometry x="370" y="120" width="30" height="120" as="geometry"/>
                </mxCell>
                <mxCell id="pceh0z-lHyys2ZX8_1NY-4" style="edgeStyle=none;html=1;exitX=0;exitY=1;exitDx=60;exitDy=0;exitPerimeter=0;entryX=1;entryY=0.5;entryDx=0;entryDy=0;" parent="1" source="jhR8D6qrNClq47DeimPQ-12" target="jhR8D6qrNClq47DeimPQ-1" edge="1">
                    <mxGeometry relative="1" as="geometry">
                        <Array as="points">
                            <mxPoint x="640" y="180"/>
                            <mxPoint x="640" y="80"/>
                        </Array>
                    </mxGeometry>
                </mxCell>
                <mxCell id="jhR8D6qrNClq47DeimPQ-12" value="Analogue" style="strokeWidth=2;strokeColor=#000000;dashed=0;align=center;html=1;fontSize=8;shape=mxgraph.eip.messageChannel;direction=south;" parent="1" vertex="1">
                    <mxGeometry x="700" y="120" width="50" height="120" as="geometry"/>
                </mxCell>
                <mxCell id="pceh0z-lHyys2ZX8_1NY-1" style="edgeStyle=none;html=1;exitX=1;exitY=0.5;exitDx=0;exitDy=0;entryX=0;entryY=0;entryDx=60;entryDy=0;entryPerimeter=0;" parent="1" source="jMnMESNjEx39eRoZDcQ--1" target="jhR8D6qrNClq47DeimPQ-2" edge="1">
                    <mxGeometry relative="1" as="geometry"/>
                </mxCell>
                <mxCell id="jMnMESNjEx39eRoZDcQ--1" value="Humidity/Temp" style="rounded=1;whiteSpace=wrap;html=1;" parent="1" vertex="1">
                    <mxGeometry x="160" y="150" width="120" height="60" as="geometry"/>
                </mxCell>
                <mxCell id="Xxw2_H-GjBGp9V4nuhXf-7" style="edgeStyle=none;html=1;exitX=0.515;exitY=0.589;exitDx=0;exitDy=0;exitPerimeter=0;entryX=0.5;entryY=0;entryDx=0;entryDy=0;" parent="1" source="Xxw2_H-GjBGp9V4nuhXf-3" target="Xxw2_H-GjBGp9V4nuhXf-5" edge="1">
                    <mxGeometry relative="1" as="geometry"/>
                </mxCell>
                <mxCell id="Xxw2_H-GjBGp9V4nuhXf-3" value="Digital" style="strokeWidth=2;strokeColor=#000000;dashed=0;align=center;html=1;fontSize=8;shape=mxgraph.eip.messageChannel;direction=south;rotation=-90;" parent="1" vertex="1">
                    <mxGeometry x="527.13" y="140" width="25.75" height="135" as="geometry"/>
                </mxCell>
                <mxCell id="pceh0z-lHyys2ZX8_1NY-2" style="edgeStyle=none;html=1;exitX=0;exitY=0.5;exitDx=0;exitDy=0;entryX=0;entryY=0;entryDx=60;entryDy=0;entryPerimeter=0;" parent="1" source="Xxw2_H-GjBGp9V4nuhXf-4" target="jhR8D6qrNClq47DeimPQ-12" edge="1">
                    <mxGeometry relative="1" as="geometry"/>
                </mxCell>
                <mxCell id="Xxw2_H-GjBGp9V4nuhXf-4" value="LDR" style="rounded=1;whiteSpace=wrap;html=1;" parent="1" vertex="1">
                    <mxGeometry x="840" y="150" width="120" height="60" as="geometry"/>
                </mxCell>
                <mxCell id="Xxw2_H-GjBGp9V4nuhXf-5" value="Relay" style="rounded=1;whiteSpace=wrap;html=1;" parent="1" vertex="1">
                    <mxGeometry x="480" y="250" width="120" height="55" as="geometry"/>
                </mxCell>
            </root>
        </mxGraphModel>
    </diagram>
    <diagram id="Cfu8meBCDNW3P5vYDLLe" name="Logic Flow">
        <mxGraphModel dx="1348" dy="950" grid="1" gridSize="10" guides="1" tooltips="1" connect="1" arrows="1" fold="1" page="1" pageScale="1" pageWidth="850" pageHeight="1100" math="0" shadow="0">
            <root>
                <mxCell id="0wSysN5PL_nOVGv4VxvC-0"/>
                <mxCell id="0wSysN5PL_nOVGv4VxvC-1" parent="0wSysN5PL_nOVGv4VxvC-0"/>
                <mxCell id="yaJ6CW4bkYyDHJsO2NXO-2" style="edgeStyle=none;html=1;exitX=0;exitY=0.5;exitDx=0;exitDy=0;entryX=0.5;entryY=0;entryDx=0;entryDy=0;" parent="0wSysN5PL_nOVGv4VxvC-1" source="yaJ6CW4bkYyDHJsO2NXO-0" target="yaJ6CW4bkYyDHJsO2NXO-1" edge="1">
                    <mxGeometry relative="1" as="geometry">
                        <mxPoint x="200" y="80" as="targetPoint"/>
                        <Array as="points">
                            <mxPoint x="210" y="80"/>
                        </Array>
                    </mxGeometry>
                </mxCell>
                <mxCell id="yaJ6CW4bkYyDHJsO2NXO-0" value="Client" style="rounded=1;whiteSpace=wrap;html=1;" parent="0wSysN5PL_nOVGv4VxvC-1" vertex="1">
                    <mxGeometry x="310" y="50" width="120" height="60" as="geometry"/>
                </mxCell>
                <mxCell id="yaJ6CW4bkYyDHJsO2NXO-17" style="edgeStyle=none;html=1;exitX=0.5;exitY=1;exitDx=0;exitDy=0;entryX=0.5;entryY=0;entryDx=0;entryDy=0;" parent="0wSysN5PL_nOVGv4VxvC-1" source="yaJ6CW4bkYyDHJsO2NXO-1" target="yaJ6CW4bkYyDHJsO2NXO-7" edge="1">
                    <mxGeometry relative="1" as="geometry"/>
                </mxCell>
                <mxCell id="yaJ6CW4bkYyDHJsO2NXO-1" value="Object Structure" style="rounded=1;whiteSpace=wrap;html=1;" parent="0wSysN5PL_nOVGv4VxvC-1" vertex="1">
                    <mxGeometry x="150" y="160" width="120" height="60" as="geometry"/>
                </mxCell>
                <mxCell id="yaJ6CW4bkYyDHJsO2NXO-8" style="edgeStyle=none;html=1;exitX=0;exitY=0.5;exitDx=0;exitDy=0;entryX=1;entryY=0.5;entryDx=0;entryDy=0;" parent="0wSysN5PL_nOVGv4VxvC-1" source="yaJ6CW4bkYyDHJsO2NXO-3" target="yaJ6CW4bkYyDHJsO2NXO-0" edge="1">
                    <mxGeometry relative="1" as="geometry"/>
                </mxCell>
                <mxCell id="yaJ6CW4bkYyDHJsO2NXO-3" value="Visitor Template" style="rounded=1;whiteSpace=wrap;html=1;" parent="0wSysN5PL_nOVGv4VxvC-1" vertex="1">
                    <mxGeometry x="580" y="50" width="120" height="60" as="geometry"/>
                </mxCell>
                <mxCell id="yaJ6CW4bkYyDHJsO2NXO-9" style="edgeStyle=none;html=1;exitX=0.5;exitY=0;exitDx=0;exitDy=0;entryX=0.5;entryY=1;entryDx=0;entryDy=0;" parent="0wSysN5PL_nOVGv4VxvC-1" source="yaJ6CW4bkYyDHJsO2NXO-4" target="yaJ6CW4bkYyDHJsO2NXO-10" edge="1">
                    <mxGeometry relative="1" as="geometry">
                        <Array as="points">
                            <mxPoint x="560" y="290"/>
                        </Array>
                    </mxGeometry>
                </mxCell>
                <mxCell id="yaJ6CW4bkYyDHJsO2NXO-13" style="edgeStyle=none;html=1;exitX=0.5;exitY=0;exitDx=0;exitDy=0;entryX=0.5;entryY=1;entryDx=0;entryDy=0;" parent="0wSysN5PL_nOVGv4VxvC-1" source="yaJ6CW4bkYyDHJsO2NXO-4" target="yaJ6CW4bkYyDHJsO2NXO-12" edge="1">
                    <mxGeometry relative="1" as="geometry">
                        <Array as="points">
                            <mxPoint x="720" y="290"/>
                        </Array>
                    </mxGeometry>
                </mxCell>
                <mxCell id="yaJ6CW4bkYyDHJsO2NXO-4" value="visit(T*)" style="shape=hexagon;perimeter=hexagonPerimeter2;whiteSpace=wrap;html=1;fixedSize=1;" parent="0wSysN5PL_nOVGv4VxvC-1" vertex="1">
                    <mxGeometry x="580" y="290" width="120" height="80" as="geometry"/>
                </mxCell>
                <mxCell id="yaJ6CW4bkYyDHJsO2NXO-23" style="edgeStyle=none;html=1;exitX=1;exitY=0.5;exitDx=0;exitDy=0;entryX=0.5;entryY=0;entryDx=0;entryDy=0;" parent="0wSysN5PL_nOVGv4VxvC-1" source="yaJ6CW4bkYyDHJsO2NXO-5" target="yaJ6CW4bkYyDHJsO2NXO-22" edge="1">
                    <mxGeometry relative="1" as="geometry">
                        <Array as="points">
                            <mxPoint x="425" y="520"/>
                        </Array>
                    </mxGeometry>
                </mxCell>
                <mxCell id="yaJ6CW4bkYyDHJsO2NXO-5" value="accept(T&amp;amp;)" style="shape=hexagon;perimeter=hexagonPerimeter2;whiteSpace=wrap;html=1;fixedSize=1;" parent="0wSysN5PL_nOVGv4VxvC-1" vertex="1">
                    <mxGeometry x="150" y="480" width="120" height="80" as="geometry"/>
                </mxCell>
                <mxCell id="yaJ6CW4bkYyDHJsO2NXO-18" style="edgeStyle=none;html=1;entryX=0.5;entryY=0;entryDx=0;entryDy=0;exitX=0.25;exitY=1;exitDx=0;exitDy=0;" parent="0wSysN5PL_nOVGv4VxvC-1" source="yaJ6CW4bkYyDHJsO2NXO-7" target="yaJ6CW4bkYyDHJsO2NXO-15" edge="1">
                    <mxGeometry relative="1" as="geometry">
                        <mxPoint x="220" y="360" as="sourcePoint"/>
                    </mxGeometry>
                </mxCell>
                <mxCell id="yaJ6CW4bkYyDHJsO2NXO-19" style="edgeStyle=none;html=1;exitX=0.75;exitY=1;exitDx=0;exitDy=0;entryX=0.5;entryY=0;entryDx=0;entryDy=0;" parent="0wSysN5PL_nOVGv4VxvC-1" source="yaJ6CW4bkYyDHJsO2NXO-7" target="yaJ6CW4bkYyDHJsO2NXO-16" edge="1">
                    <mxGeometry relative="1" as="geometry"/>
                </mxCell>
                <mxCell id="yaJ6CW4bkYyDHJsO2NXO-7" value="Element Template" style="rounded=1;whiteSpace=wrap;html=1;" parent="0wSysN5PL_nOVGv4VxvC-1" vertex="1">
                    <mxGeometry x="150" y="260" width="120" height="60" as="geometry"/>
                </mxCell>
                <mxCell id="yaJ6CW4bkYyDHJsO2NXO-11" style="edgeStyle=none;html=1;exitX=0.5;exitY=0;exitDx=0;exitDy=0;entryX=0.5;entryY=1;entryDx=0;entryDy=0;" parent="0wSysN5PL_nOVGv4VxvC-1" source="yaJ6CW4bkYyDHJsO2NXO-10" target="yaJ6CW4bkYyDHJsO2NXO-3" edge="1">
                    <mxGeometry relative="1" as="geometry"/>
                </mxCell>
                <mxCell id="yaJ6CW4bkYyDHJsO2NXO-10" value="Serialize Visitor" style="rounded=1;whiteSpace=wrap;html=1;" parent="0wSysN5PL_nOVGv4VxvC-1" vertex="1">
                    <mxGeometry x="500" y="160" width="120" height="60" as="geometry"/>
                </mxCell>
                <mxCell id="yaJ6CW4bkYyDHJsO2NXO-14" style="edgeStyle=none;html=1;exitX=0.5;exitY=0;exitDx=0;exitDy=0;entryX=0.5;entryY=1;entryDx=0;entryDy=0;" parent="0wSysN5PL_nOVGv4VxvC-1" source="yaJ6CW4bkYyDHJsO2NXO-12" target="yaJ6CW4bkYyDHJsO2NXO-3" edge="1">
                    <mxGeometry relative="1" as="geometry"/>
                </mxCell>
                <mxCell id="yaJ6CW4bkYyDHJsO2NXO-12" value="Sensor Visitor" style="rounded=1;whiteSpace=wrap;html=1;" parent="0wSysN5PL_nOVGv4VxvC-1" vertex="1">
                    <mxGeometry x="660" y="160" width="120" height="60" as="geometry"/>
                </mxCell>
                <mxCell id="yaJ6CW4bkYyDHJsO2NXO-20" style="edgeStyle=none;html=1;exitX=0.5;exitY=1;exitDx=0;exitDy=0;entryX=0.5;entryY=0;entryDx=0;entryDy=0;" parent="0wSysN5PL_nOVGv4VxvC-1" source="yaJ6CW4bkYyDHJsO2NXO-15" target="yaJ6CW4bkYyDHJsO2NXO-5" edge="1">
                    <mxGeometry relative="1" as="geometry"/>
                </mxCell>
                <mxCell id="yaJ6CW4bkYyDHJsO2NXO-15" value="Sensors" style="rounded=1;whiteSpace=wrap;html=1;" parent="0wSysN5PL_nOVGv4VxvC-1" vertex="1">
                    <mxGeometry x="70" y="370" width="120" height="60" as="geometry"/>
                </mxCell>
                <mxCell id="yaJ6CW4bkYyDHJsO2NXO-21" style="edgeStyle=none;html=1;exitX=0.5;exitY=1;exitDx=0;exitDy=0;" parent="0wSysN5PL_nOVGv4VxvC-1" source="yaJ6CW4bkYyDHJsO2NXO-16" edge="1">
                    <mxGeometry relative="1" as="geometry">
                        <mxPoint x="210" y="480" as="targetPoint"/>
                    </mxGeometry>
                </mxCell>
                <mxCell id="yaJ6CW4bkYyDHJsO2NXO-16" value="NTP" style="rounded=1;whiteSpace=wrap;html=1;" parent="0wSysN5PL_nOVGv4VxvC-1" vertex="1">
                    <mxGeometry x="230" y="370" width="120" height="60" as="geometry"/>
                </mxCell>
                <mxCell id="yaJ6CW4bkYyDHJsO2NXO-25" style="edgeStyle=none;html=1;exitX=0.5;exitY=1;exitDx=0;exitDy=0;entryX=0.5;entryY=0;entryDx=0;entryDy=0;" parent="0wSysN5PL_nOVGv4VxvC-1" source="yaJ6CW4bkYyDHJsO2NXO-22" target="yaJ6CW4bkYyDHJsO2NXO-24" edge="1">
                    <mxGeometry relative="1" as="geometry"/>
                </mxCell>
                <mxCell id="ETe5ISdlwYtzlm2pTGRN-6" style="edgeStyle=none;html=1;exitX=1;exitY=0.5;exitDx=0;exitDy=0;entryX=0;entryY=0.5;entryDx=0;entryDy=0;" parent="0wSysN5PL_nOVGv4VxvC-1" source="yaJ6CW4bkYyDHJsO2NXO-22" target="ETe5ISdlwYtzlm2pTGRN-0" edge="1">
                    <mxGeometry relative="1" as="geometry"/>
                </mxCell>
                <mxCell id="yaJ6CW4bkYyDHJsO2NXO-22" value="Accumulate Data" style="rounded=1;whiteSpace=wrap;html=1;" parent="0wSysN5PL_nOVGv4VxvC-1" vertex="1">
                    <mxGeometry x="365" y="600" width="120" height="60" as="geometry"/>
                </mxCell>
                <mxCell id="ETe5ISdlwYtzlm2pTGRN-7" style="edgeStyle=none;html=1;exitX=1;exitY=0.25;exitDx=0;exitDy=0;entryX=0;entryY=0.25;entryDx=0;entryDy=0;" parent="0wSysN5PL_nOVGv4VxvC-1" source="yaJ6CW4bkYyDHJsO2NXO-24" target="ETe5ISdlwYtzlm2pTGRN-1" edge="1">
                    <mxGeometry relative="1" as="geometry"/>
                </mxCell>
                <mxCell id="yaJ6CW4bkYyDHJsO2NXO-24" value="MQTT" style="rounded=1;whiteSpace=wrap;html=1;" parent="0wSysN5PL_nOVGv4VxvC-1" vertex="1">
                    <mxGeometry x="365" y="710" width="120" height="60" as="geometry"/>
                </mxCell>
                <mxCell id="ETe5ISdlwYtzlm2pTGRN-2" style="edgeStyle=none;html=1;exitX=0.5;exitY=1;exitDx=0;exitDy=0;" parent="0wSysN5PL_nOVGv4VxvC-1" source="ETe5ISdlwYtzlm2pTGRN-0" target="ETe5ISdlwYtzlm2pTGRN-1" edge="1">
                    <mxGeometry relative="1" as="geometry"/>
                </mxCell>
                <mxCell id="ETe5ISdlwYtzlm2pTGRN-0" value="API" style="rounded=1;whiteSpace=wrap;html=1;" parent="0wSysN5PL_nOVGv4VxvC-1" vertex="1">
                    <mxGeometry x="550" y="600" width="120" height="60" as="geometry"/>
                </mxCell>
                <mxCell id="ETe5ISdlwYtzlm2pTGRN-3" style="edgeStyle=none;html=1;exitX=0;exitY=0.5;exitDx=0;exitDy=0;entryX=1;entryY=0.5;entryDx=0;entryDy=0;" parent="0wSysN5PL_nOVGv4VxvC-1" source="ETe5ISdlwYtzlm2pTGRN-1" target="yaJ6CW4bkYyDHJsO2NXO-24" edge="1">
                    <mxGeometry relative="1" as="geometry"/>
                </mxCell>
                <mxCell id="ETe5ISdlwYtzlm2pTGRN-4" style="edgeStyle=none;html=1;exitX=0.5;exitY=1;exitDx=0;exitDy=0;entryX=0;entryY=0.5;entryDx=0;entryDy=0;" parent="0wSysN5PL_nOVGv4VxvC-1" source="ETe5ISdlwYtzlm2pTGRN-1" target="yaJ6CW4bkYyDHJsO2NXO-15" edge="1">
                    <mxGeometry relative="1" as="geometry">
                        <Array as="points">
                            <mxPoint x="610" y="830"/>
                            <mxPoint x="600" y="830"/>
                            <mxPoint x="340" y="830"/>
                            <mxPoint x="40" y="830"/>
                            <mxPoint x="40" y="640"/>
                            <mxPoint x="40" y="400"/>
                        </Array>
                    </mxGeometry>
                </mxCell>
                <mxCell id="ETe5ISdlwYtzlm2pTGRN-1" value="Config" style="rounded=1;whiteSpace=wrap;html=1;" parent="0wSysN5PL_nOVGv4VxvC-1" vertex="1">
                    <mxGeometry x="550" y="710" width="120" height="60" as="geometry"/>
                </mxCell>
                <mxCell id="ETe5ISdlwYtzlm2pTGRN-5" value="Main Loop" style="swimlane;whiteSpace=wrap;html=1;" parent="0wSysN5PL_nOVGv4VxvC-1" vertex="1">
                    <mxGeometry x="330" y="490" width="370" height="350" as="geometry"/>
                </mxCell>
            </root>
        </mxGraphModel>
    </diagram>
</mxfile>